<svg xmlns="http://www.w3.org/2000/svg" width="360" height="360" viewBox="0 0 360 360" fill="none">
  <g stroke="#8A9AA3" stroke-width="1.4" stroke-linecap="round" stroke-linejoin="round" opacity="0.22">
    <path d="M25 38c13-13 34-13 47 0s13 34 0 47-34 13-47 0-13-34 0-47Z"/>
    <path d="M38 62h21M48.5 51.5v21"/>
    <path d="M120 24 131 45l23 3-17 16 4 23-21-11-21 11 4-23-17-16 23-3 11-21Z"/>
    <path d="M219 31c11-9 27-7 36 4 9 12 7 28-5 37-11 9-28 7-37-5-9-11-6-27 6-36Z"/>
    <path d="m224 49 9 9 18-20"/>
    <path d="M307 25c14 0 25 10 25 23 0 14-11 24-25 24h-6l-13 10 3-15c-6-4-9-11-9-19 0-13 11-23 25-23Z"/>
    <path d="M31 144c0-13 11-24 24-24h20c13 0 24 11 24 24v10c0 13-11 24-24 24h-9l-18 13 4-16c-12-2-21-12-21-24v-7Z"/>
    <path d="M47 143h36M47 155h24"/>
    <path d="M151 125c12 0 21 9 21 21 0 8-4 15-11 19v16l-10-10-10 10v-16c-7-4-11-11-11-19 0-12 9-21 21-21Z"/>
    <path d="m143 146 6 6 11-13"/>
    <path d="M229 123c12 0 22 10 22 22v30h-44v-30c0-12 10-22 22-22Z"/>
    <path d="M219 123v-8a10 10 0 0 1 20 0v8M218 145h22"/>
    <path d="M305 123c13 0 24 11 24 24s-11 24-24 24-24-11-24-24 11-24 24-24Z"/>
    <path d="M295 146h20M305 136v20"/>
    <path d="M28 242c0-10 8-18 18-18h38c10 0 18 8 18 18v28c0 10-8 18-18 18H56l-20 14 5-16c-8-2-13-9-13-17v-27Z"/>
    <path d="m48 251 10 10 22-24"/>
    <path d="M151 224c16 0 29 13 29 29s-13 29-29 29-29-13-29-29 13-29 29-29Z"/>
    <path d="M140 247c3-4 7-6 11-6s8 2 11 6M140 260c3 4 7 6 11 6s8-2 11-6"/>
    <path d="M218 225h36v52h-36zM226 236h20M226 246h20M226 256h13"/>
    <path d="m309 222 7 19 20 1-16 12 5 19-16-11-17 11 6-19-16-12 20-1 7-19Z"/>
    <path d="M20 332h52M46 306v52M112 322l12 12 24-27M204 322c7-9 21-9 28 0s7 21 0 29M302 307l27 27M329 307l-27 27"/>
  </g>
</svg>
