<svg xmlns="http://www.w3.org/2000/svg" viewBox="0 0 200 200" fill="none">
  <defs>
    <linearGradient id="g" x1="0%" y1="0%" x2="100%" y2="100%">
      <stop offset="0%" stop-color="#e6007e"/>
      <stop offset="100%" stop-color="#ff4db1"/>
    </linearGradient>
  </defs>
  <!-- Feminine silhouette - flowing woman line art -->
  <path d="M108 28c-8-2-16 2-20 9-4 8-3 16 1 22 2 3 4 5 4 8 0 4-3 7-5 10-3 4-5 9-4 14 1 4 3 7 5 10 3 4 5 9 4 14-1 6-5 10-9 14-5 5-11 9-16 14-6 6-10 13-12 21-2 8-1 16 2 23 2 5 5 9 8 12" stroke="url(#g)" stroke-width="6" stroke-linecap="round" fill="none"/>
  <path d="M95 38c6-8 15-12 24-10 6 1 11 5 14 10 3 6 4 13 2 19-2 5-5 9-9 12-5 4-10 7-14 12-3 4-5 9-5 14 0 6 2 11 5 16 4 6 9 11 13 17 3 5 5 11 5 17 0 8-4 15-9 20" stroke="url(#g)" stroke-width="6" stroke-linecap="round" fill="none"/>
  <!-- Head circle -->
  <circle cx="105" cy="30" r="14" stroke="url(#g)" stroke-width="5" fill="none"/>
  <!-- Hair flowing -->
  <path d="M93 22c-3 8-8 15-12 22-3 5-4 11-2 16" stroke="url(#g)" stroke-width="4" stroke-linecap="round" fill="none"/>
  <path d="M117 25c4 6 6 14 5 21-1 5-3 10-6 14" stroke="url(#g)" stroke-width="4" stroke-linecap="round" fill="none"/>
  <!-- Body curves -->
  <path d="M88 72c-6 10-10 22-8 34 2 10 8 18 15 25 5 5 10 11 12 18 2 8 0 16-4 23" stroke="url(#g)" stroke-width="5.5" stroke-linecap="round" fill="none"/>
  <path d="M116 68c4 8 6 18 4 27-2 8-6 15-12 21-5 5-9 12-10 19-1 8 1 16 6 22" stroke="url(#g)" stroke-width="5.5" stroke-linecap="round" fill="none"/>
  <!-- Heart shape at bottom -->
  <path d="M90 155c-4 6-6 13-4 20 2 6 8 10 14 11 6-1 12-5 14-11 2-7 0-14-4-20" stroke="url(#g)" stroke-width="4" stroke-linecap="round" stroke-linejoin="round" fill="none"/>
</svg>
